<svg width="115" height="40" viewBox="0 0 115 40" fill="none" xmlns="http://www.w3.org/2000/svg">
<g clip-path="url(#clip0_18_738)">
<mask id="mask0_18_738" style="mask-type:luminance" maskUnits="userSpaceOnUse" x="0" y="0" width="115" height="40">
<path d="M115 0H0V40H115V0Z" fill="white"/>
</mask>
<g mask="url(#mask0_18_738)">
<path d="M21.85 9.3285C22.9608 9.3285 23.8537 9.6645 24.5289 10.3365C25.215 10.9979 25.5581 11.9259 25.5581 13.1205V18.3205H23.2711V13.4245C23.2711 12.7311 23.0914 12.2031 22.7321 11.8405C22.3727 11.4671 21.8826 11.2805 21.2619 11.2805C20.6412 11.2805 20.1456 11.4671 19.7754 11.8405C19.416 12.2031 19.2363 12.7311 19.2363 13.4245V18.3205H16.9494V13.4245C16.9494 12.7311 16.7697 12.2031 16.4103 11.8405C16.051 11.4671 15.5609 11.2805 14.9402 11.2805C14.3086 11.2805 13.8076 11.4671 13.4373 11.8405C13.0779 12.2031 12.8983 12.7311 12.8983 13.4245V18.3205H10.6113V9.4565H12.8983V10.5285C13.1923 10.1551 13.568 9.86186 14.0254 9.6485C14.4936 9.43514 15.0055 9.3285 15.5609 9.3285C16.2688 9.3285 16.9004 9.47786 17.4558 9.7765C18.0112 10.0645 18.4414 10.4805 18.7463 11.0245C19.0403 10.5125 19.465 10.1019 20.0204 9.7925C20.5867 9.48314 21.1966 9.3285 21.85 9.3285ZM27.1401 13.8565C27.1401 12.9605 27.3198 12.1659 27.6792 11.4725C28.0495 10.7791 28.545 10.2459 29.1657 9.8725C29.7974 9.49914 30.4998 9.3125 31.2729 9.3125C31.9482 9.3125 32.5362 9.44586 33.0371 9.7125C33.549 9.97914 33.9574 10.3151 34.2623 10.7205V9.4565H36.5656V18.3205H34.2623V17.0245C33.9683 17.4405 33.5599 17.7871 33.0371 18.0645C32.5254 18.3311 31.9318 18.4645 31.2566 18.4645C30.4943 18.4645 29.7974 18.2725 29.1657 17.8885C28.545 17.5045 28.0495 16.9659 27.6792 16.2725C27.3198 15.5685 27.1401 14.7631 27.1401 13.8565ZM34.2623 13.8885C34.2623 13.3445 34.1534 12.8805 33.9356 12.4965C33.7178 12.1019 33.4238 11.8031 33.0535 11.6005C32.6832 11.3871 32.2857 11.2805 31.861 11.2805C31.4363 11.2805 31.0442 11.3819 30.6849 11.5845C30.3255 11.7871 30.0315 12.0859 29.8028 12.4805C29.585 12.8645 29.4761 13.3231 29.4761 13.8565C29.4761 14.3899 29.585 14.8591 29.8028 15.2645C30.0315 15.6591 30.3255 15.9631 30.6849 16.1765C31.0552 16.3899 31.4472 16.4965 31.861 16.4965C32.2857 16.4965 32.6832 16.3951 33.0535 16.1925C33.4238 15.9791 33.7178 15.6805 33.9356 15.2965C34.1534 14.9019 34.2623 14.4325 34.2623 13.8885ZM43.8141 9.3285C44.8922 9.3285 45.7634 9.6645 46.4277 10.3365C47.0921 10.9979 47.4242 11.9259 47.4242 13.1205V18.3205H45.1372V13.4245C45.1372 12.7205 44.9575 12.1819 44.5982 11.8085C44.2388 11.4245 43.7487 11.2325 43.128 11.2325C42.4964 11.2325 41.9955 11.4245 41.6251 11.8085C41.2658 12.1819 41.0861 12.7205 41.0861 13.4245V18.3205H38.7992V9.4565H41.0861V10.5605C41.3911 10.1765 41.7776 9.87786 42.2459 9.6645C42.7251 9.4405 43.2478 9.3285 43.8141 9.3285ZM49.0109 13.8565C49.0109 12.9605 49.1906 12.1659 49.5499 11.4725C49.9202 10.7791 50.4157 10.2459 51.0364 9.8725C51.668 9.49914 52.3705 9.3125 53.1437 9.3125C53.8188 9.3125 54.4069 9.44586 54.9079 9.7125C55.4197 9.97914 55.8281 10.3151 56.133 10.7205V9.4565H58.4363V18.3205H56.133V17.0245C55.839 17.4405 55.4306 17.7871 54.9079 18.0645C54.396 18.3311 53.8025 18.4645 53.1274 18.4645C52.365 18.4645 51.668 18.2725 51.0364 17.8885C50.4157 17.5045 49.9202 16.9659 49.5499 16.2725C49.1906 15.5685 49.0109 14.7631 49.0109 13.8565ZM56.133 13.8885C56.133 13.3445 56.0241 12.8805 55.8063 12.4965C55.5885 12.1019 55.2945 11.8031 54.9242 11.6005C54.5539 11.3871 54.1565 11.2805 53.7318 11.2805C53.307 11.2805 52.915 11.3819 52.5556 11.5845C52.1962 11.7871 51.9022 12.0859 51.6735 12.4805C51.4557 12.8645 51.3468 13.3231 51.3468 13.8565C51.3468 14.3899 51.4557 14.8591 51.6735 15.2645C51.9022 15.6591 52.1962 15.9631 52.5556 16.1765C52.9259 16.3899 53.3179 16.4965 53.7318 16.4965C54.1565 16.4965 54.5539 16.3951 54.9242 16.1925C55.2945 15.9791 55.5885 15.6805 55.8063 15.2965C56.0241 14.9019 56.133 14.4325 56.133 13.8885ZM64.2146 9.3125C64.8898 9.3125 65.4833 9.44586 65.9952 9.7125C66.507 9.9685 66.91 10.3045 67.204 10.7205V9.4565H69.5073V18.3845C69.5073 19.2059 69.3384 19.9365 69.0009 20.5765C68.6632 21.2271 68.1568 21.7391 67.4817 22.1125C66.8065 22.4965 65.9897 22.6885 65.0314 22.6885C63.7463 22.6885 62.69 22.3951 61.8624 21.8085C61.0456 21.2219 60.5828 20.4219 60.4739 19.4085H62.7445C62.8642 19.8139 63.1202 20.1339 63.5122 20.3685C63.9151 20.6139 64.3997 20.7365 64.9661 20.7365C65.6303 20.7365 66.1694 20.5391 66.5833 20.1445C66.997 19.7605 67.204 19.1739 67.204 18.3845V17.0085C66.91 17.4245 66.5016 17.7711 65.9789 18.0485C65.467 18.3259 64.8789 18.4645 64.2146 18.4645C63.4523 18.4645 62.7553 18.2725 62.1237 17.8885C61.4921 17.5045 60.9911 16.9659 60.6209 16.2725C60.2615 15.5685 60.0818 14.7631 60.0818 13.8565C60.0818 12.9605 60.2615 12.1659 60.6209 11.4725C60.9911 10.7791 61.4867 10.2459 62.1074 9.8725C62.739 9.49914 63.4414 9.3125 64.2146 9.3125ZM67.204 13.8885C67.204 13.3445 67.095 12.8805 66.8773 12.4965C66.6595 12.1019 66.3654 11.8031 65.9952 11.6005C65.6249 11.3871 65.2274 11.2805 64.8027 11.2805C64.378 11.2805 63.986 11.3819 63.6266 11.5845C63.2672 11.7871 62.9732 12.0859 62.7445 12.4805C62.5266 12.8645 62.4178 13.3231 62.4178 13.8565C62.4178 14.3899 62.5266 14.8591 62.7445 15.2645C62.9732 15.6591 63.2672 15.9631 63.6266 16.1765C63.9968 16.3899 64.3889 16.4965 64.8027 16.4965C65.2274 16.4965 65.6249 16.3951 65.9952 16.1925C66.3654 15.9791 66.6595 15.6805 66.8773 15.2965C67.095 14.9019 67.204 14.4325 67.204 13.8885ZM80.1535 13.6965C80.1535 14.0165 80.1317 14.3045 80.0882 14.5605H73.4724C73.5268 15.2005 73.7555 15.7019 74.1585 16.0645C74.5614 16.4271 75.0569 16.6085 75.645 16.6085C76.4944 16.6085 77.0988 16.2511 77.4582 15.5365H79.9248C79.6634 16.3899 79.1624 17.0939 78.422 17.6485C77.6814 18.1925 76.7721 18.4645 75.694 18.4645C74.8227 18.4645 74.0387 18.2779 73.3417 17.9045C72.6556 17.5205 72.1166 16.9819 71.7245 16.2885C71.3433 15.5951 71.1527 14.7951 71.1527 13.8885C71.1527 12.9711 71.3433 12.1659 71.7245 11.4725C72.1056 10.7791 72.6393 10.2459 73.3254 9.8725C74.0115 9.49914 74.8009 9.3125 75.694 9.3125C76.5543 9.3125 77.322 9.49386 77.9972 9.8565C78.6833 10.2191 79.2114 10.7365 79.5818 11.4085C79.9629 12.0699 80.1535 12.8325 80.1535 13.6965ZM77.7849 13.0565C77.7739 12.4805 77.5616 12.0219 77.1478 11.6805C76.734 11.3285 76.2276 11.1525 75.6286 11.1525C75.0623 11.1525 74.5832 11.3231 74.1911 11.6645C73.81 11.9951 73.5758 12.4591 73.4887 13.0565H77.7849Z" fill="url(#paint0_linear_18_738)"/>
<path d="M55.2723 35.2495L52.7567 30.8975H51.6785V35.2495H49.3916V24.0815H53.6714C54.5535 24.0815 55.305 24.2362 55.9257 24.5455C56.5464 24.8442 57.0092 25.2549 57.3142 25.7775C57.6299 26.2895 57.7879 26.8655 57.7879 27.5055C57.7879 28.2415 57.5701 28.9082 57.1345 29.5055C56.6988 30.0922 56.0509 30.4975 55.1906 30.7215L57.9186 35.2495H55.2723ZM51.6785 29.2175H53.5898C54.2105 29.2175 54.6733 29.0735 54.9782 28.7855C55.2831 28.4869 55.4356 28.0762 55.4356 27.5535C55.4356 27.0415 55.2831 26.6469 54.9782 26.3695C54.6733 26.0815 54.2105 25.9375 53.5898 25.9375H51.6785V29.2175ZM67.6156 24.0815V25.8895H64.5772V35.2495H62.2903V25.8895H59.252V24.0815H67.6156ZM68.7288 29.6495C68.7288 28.5509 68.9793 27.5695 69.4802 26.7055C69.992 25.8309 70.6836 25.1535 71.5547 24.6735C72.4368 24.1829 73.4224 23.9375 74.5114 23.9375C75.7856 23.9375 76.9018 24.2575 77.8601 24.8975C78.8185 25.5375 79.4883 26.4229 79.8694 27.5535H77.2394C76.978 27.0202 76.6078 26.6202 76.1286 26.3535C75.6604 26.0869 75.1158 25.9535 74.4951 25.9535C73.8308 25.9535 73.2373 26.1082 72.7145 26.4175C72.2028 26.7162 71.7998 27.1429 71.5057 27.6975C71.2227 28.2522 71.081 28.9029 71.081 29.6495C71.081 30.3855 71.2227 31.0362 71.5057 31.6015C71.7998 32.1562 72.2028 32.5882 72.7145 32.8975C73.2373 33.1962 73.8308 33.3455 74.4951 33.3455C75.1158 33.3455 75.6604 33.2122 76.1286 32.9455C76.6078 32.6682 76.978 32.2629 77.2394 31.7295H79.8694C79.4883 32.8709 78.8185 33.7615 77.8601 34.4015C76.9127 35.0309 75.7965 35.3455 74.5114 35.3455C73.4224 35.3455 72.4368 35.1055 71.5547 34.6255C70.6836 34.1349 69.992 33.4575 69.4802 32.5935C68.9793 31.7295 68.7288 30.7482 68.7288 29.6495Z" fill="url(#paint1_linear_18_738)"/>
<path d="M94.3228 4.23828C98.7979 4.23828 102.426 7.79169 102.426 12.175C102.426 16.5584 98.7979 20.1118 94.3228 20.1118C89.8478 20.1118 86.2197 16.5584 86.2197 12.175C86.2197 7.79169 89.8478 4.23828 94.3228 4.23828ZM94.3228 9.00028C92.5325 9.00028 91.0811 10.4216 91.0811 12.175C91.0811 13.9284 92.5325 15.3497 94.3228 15.3497C96.1123 15.3497 97.5637 13.9284 97.5637 12.175C97.5637 10.4216 96.1123 9.00028 94.3228 9.00028Z" fill="url(#paint2_linear_18_738)"/>
<path d="M100.319 21.6992C104.794 21.6992 108.422 25.2526 108.422 29.6359C108.422 34.0193 104.794 37.5727 100.319 37.5727C95.8439 37.5727 92.2158 34.0193 92.2158 29.6359C92.2158 25.2526 95.8439 21.6992 100.319 21.6992ZM100.319 24.8739C97.6342 24.8739 95.4575 27.0059 95.4575 29.6359C95.4575 32.2659 97.6342 34.398 100.319 34.398C103.004 34.398 105.181 32.2659 105.181 29.6359C105.181 27.0059 103.004 24.8739 100.319 24.8739Z" fill="url(#paint3_linear_18_738)"/>
<path d="M100.805 27.0165C100.805 26.7097 100.551 26.4609 100.238 26.4609C99.9248 26.4609 99.6709 26.7097 99.6709 27.0165V29.715C99.6709 30.0218 99.9248 30.2706 100.238 30.2706C100.551 30.2706 100.805 30.0218 100.805 29.715V27.0165Z" fill="url(#paint4_linear_18_738)"/>
<path d="M101.859 29.1602H100.238C99.9248 29.1602 99.6709 29.4089 99.6709 29.7157C99.6709 30.0226 99.9248 30.2713 100.238 30.2713H101.859C102.172 30.2713 102.426 30.0226 102.426 29.7157C102.426 29.4089 102.172 29.1602 101.859 29.1602Z" fill="url(#paint5_linear_18_738)"/>
<path d="M100.318 29.9553C100.497 29.9553 100.642 29.8131 100.642 29.6378C100.642 29.4624 100.497 29.3203 100.318 29.3203C100.139 29.3203 99.9941 29.4624 99.9941 29.6378C99.9941 29.8131 100.139 29.9553 100.318 29.9553Z" fill="#93259E"/>
<path d="M94.1733 22.2578C91.9893 24.0043 90.5951 26.6622 90.5951 29.639C90.5951 32.3569 91.7573 34.8088 93.622 36.544H84.8614C83.508 36.544 82.4111 35.4695 82.4111 34.144V29.4578C82.4111 25.4814 85.7019 22.2578 89.762 22.2578H94.1733Z" fill="url(#paint6_linear_18_738)"/>
</g>
</g>
<defs>
<linearGradient id="paint0_linear_18_738" x1="9.39234" y1="11.5079" x2="80.6956" y2="11.5079" gradientUnits="userSpaceOnUse">
<stop stop-color="#6A1B9A"/>
<stop offset="1" stop-color="#A43BFC"/>
</linearGradient>
<linearGradient id="paint1_linear_18_738" x1="9.39236" y1="28.4369" x2="80.6956" y2="28.4369" gradientUnits="userSpaceOnUse">
<stop stop-color="#6E1DA1"/>
<stop offset="1" stop-color="#A5299F"/>
</linearGradient>
<linearGradient id="paint2_linear_18_738" x1="94.8937" y1="4.23828" x2="104.857" y2="18.7978" gradientUnits="userSpaceOnUse">
<stop stop-color="#6A1B9A"/>
<stop offset="0.639423" stop-color="#A13BFF"/>
<stop offset="0.927885" stop-color="#FF3EA6"/>
</linearGradient>
<linearGradient id="paint3_linear_18_738" x1="94.7682" y1="35.3901" x2="111.693" y2="20.957" gradientUnits="userSpaceOnUse">
<stop stop-color="#FF3EA6"/>
<stop offset="1" stop-color="#6A1B9A"/>
</linearGradient>
<linearGradient id="paint4_linear_18_738" x1="100.238" y1="26.4609" x2="100.238" y2="30.2706" gradientUnits="userSpaceOnUse">
<stop stop-color="#FF3EA6"/>
<stop offset="0.850962" stop-color="#6A1B9A"/>
</linearGradient>
<linearGradient id="paint5_linear_18_738" x1="102.466" y1="29.6363" x2="99.671" y2="29.719" gradientUnits="userSpaceOnUse">
<stop offset="0.058122" stop-color="#FF3EA6"/>
<stop offset="1" stop-color="#6A1B9A"/>
</linearGradient>
<linearGradient id="paint6_linear_18_738" x1="89.5415" y1="21.1467" x2="100.991" y2="28.5036" gradientUnits="userSpaceOnUse">
<stop stop-color="#6A1B9A"/>
<stop offset="0.490385" stop-color="#A13BFF"/>
<stop offset="1" stop-color="#FF3EA6"/>
</linearGradient>
<clipPath id="clip0_18_738">
<rect width="115" height="40" fill="white"/>
</clipPath>
</defs>
</svg>
