<svg width="1048" height="372" viewBox="0 0 1048 372" fill="none" xmlns="http://www.w3.org/2000/svg">
<path d="M1018.23 0H29.7727C13.3297 0 0 13.324 0 29.76V342.24C0 358.676 13.3297 372 29.7727 372H1018.23C1034.67 372 1048 358.676 1048 342.24V29.76C1048 13.324 1034.67 0 1018.23 0Z" fill="white"/>
<path d="M199.123 86.7504C209.246 86.7504 217.384 89.8752 223.537 96.1248C229.789 102.275 232.915 110.906 232.915 122.016V170.376H212.074V124.843C212.074 118.395 210.437 113.485 207.162 110.112C203.887 106.64 199.421 104.904 193.764 104.904C188.107 104.904 183.592 106.64 180.218 110.112C176.943 113.485 175.305 118.395 175.305 124.843V170.376H154.464V124.843C154.464 118.395 152.827 113.485 149.552 110.112C146.277 106.64 141.811 104.904 136.154 104.904C130.398 104.904 125.832 106.64 122.458 110.112C119.183 113.485 117.546 118.395 117.546 124.843V170.376H96.7051V87.9408H117.546V97.9104C120.226 94.4381 123.649 91.7106 127.818 89.7264C132.085 87.7421 136.749 86.7504 141.811 86.7504C148.262 86.7504 154.018 88.1394 159.079 90.9168C164.14 93.5952 168.061 97.464 170.839 102.523C173.519 97.7616 177.389 93.9426 182.451 91.0656C187.611 88.1885 193.169 86.7504 199.123 86.7504ZM247.333 128.861C247.333 120.528 248.97 113.138 252.245 106.69C255.62 100.241 260.135 95.2818 265.792 91.8096C271.548 88.3373 277.95 86.6016 284.995 86.6016C291.149 86.6016 296.508 87.8418 301.073 90.3216C305.737 92.8013 309.459 95.9261 312.237 99.696V87.9408H333.227V170.376H312.237V158.323C309.558 162.192 305.836 165.416 301.073 167.995C296.409 170.475 291 171.715 284.846 171.715C277.9 171.715 271.548 169.93 265.792 166.358C260.135 162.787 255.62 157.778 252.245 151.33C248.97 144.782 247.333 137.293 247.333 128.861ZM312.237 129.158C312.237 124.099 311.245 119.784 309.26 116.213C307.276 112.543 304.596 109.765 301.221 107.88C297.847 105.896 294.225 104.904 290.354 104.904C286.484 104.904 282.911 105.847 279.636 107.731C276.361 109.616 273.682 112.394 271.598 116.064C269.613 119.635 268.62 123.901 268.62 128.861C268.62 133.821 269.613 138.185 271.598 141.955C273.682 145.625 276.361 148.453 279.636 150.437C283.011 152.421 286.584 153.413 290.354 153.413C294.225 153.413 297.847 152.47 301.221 150.586C304.596 148.601 307.276 145.824 309.26 142.253C311.245 138.583 312.237 134.218 312.237 129.158ZM399.283 86.7504C409.108 86.7504 417.048 89.8752 423.101 96.1248C429.156 102.275 432.182 110.906 432.182 122.016V170.376H411.341V124.843C411.341 118.296 409.704 113.287 406.429 109.814C403.154 106.243 398.688 104.458 393.031 104.458C387.275 104.458 382.71 106.243 379.335 109.814C376.06 113.287 374.423 118.296 374.423 124.843V170.376H353.582V87.9408H374.423V98.208C377.202 94.6368 380.725 91.8594 384.992 89.8752C389.359 87.792 394.123 86.7504 399.283 86.7504ZM446.642 128.861C446.642 120.528 448.279 113.138 451.554 106.69C454.928 100.241 459.444 95.2818 465.101 91.8096C470.857 88.3373 477.258 86.6016 484.304 86.6016C490.457 86.6016 495.816 87.8418 500.382 90.3216C505.045 92.8013 508.767 95.9261 511.546 99.696V87.9408H532.536V170.376H511.546V158.323C508.867 162.192 505.145 165.416 500.382 167.995C495.717 170.475 490.308 171.715 484.155 171.715C477.208 171.715 470.857 169.93 465.101 166.358C459.444 162.787 454.928 157.778 451.554 151.33C448.279 144.782 446.642 137.293 446.642 128.861ZM511.546 129.158C511.546 124.099 510.553 119.784 508.569 116.213C506.584 112.543 503.904 109.765 500.53 107.88C497.156 105.896 493.534 104.904 489.663 104.904C485.793 104.904 482.22 105.847 478.945 107.731C475.67 109.616 472.991 112.394 470.907 116.064C468.921 119.635 467.929 123.901 467.929 128.861C467.929 133.821 468.921 138.185 470.907 141.955C472.991 145.625 475.67 148.453 478.945 150.437C482.319 152.421 485.892 153.413 489.663 153.413C493.534 153.413 497.156 152.47 500.53 150.586C503.904 148.601 506.584 145.824 508.569 142.253C510.553 138.583 511.546 134.218 511.546 129.158ZM585.194 86.6016C591.347 86.6016 596.756 87.8418 601.421 90.3216C606.084 92.7024 609.757 95.8272 612.436 99.696V87.9408H633.426V170.971C633.426 178.61 631.888 185.405 628.811 191.357C625.734 197.408 621.12 202.169 614.967 205.642C608.814 209.213 601.371 210.998 592.638 210.998C580.927 210.998 571.3 208.27 563.758 202.814C556.315 197.359 552.097 189.919 551.105 180.494H571.797C572.888 184.264 575.221 187.24 578.793 189.422C582.465 191.704 586.881 192.845 592.042 192.845C598.096 192.845 603.008 191.009 606.78 187.339C610.55 183.768 612.436 178.312 612.436 170.971V158.174C609.757 162.043 606.035 165.267 601.272 167.846C596.607 170.426 591.248 171.715 585.194 171.715C578.247 171.715 571.896 169.93 566.14 166.358C560.383 162.787 555.818 157.778 552.444 151.33C549.169 144.782 547.532 137.293 547.532 128.861C547.532 120.528 549.169 113.138 552.444 106.69C555.818 100.241 560.334 95.2818 565.991 91.8096C571.747 88.3373 578.148 86.6016 585.194 86.6016ZM612.436 129.158C612.436 124.099 611.444 119.784 609.459 116.213C607.474 112.543 604.795 109.765 601.421 107.88C598.046 105.896 594.424 104.904 590.554 104.904C586.683 104.904 583.11 105.847 579.835 107.731C576.56 109.616 573.881 112.394 571.797 116.064C569.812 119.635 568.819 123.901 568.819 128.861C568.819 133.821 569.812 138.185 571.797 141.955C573.881 145.625 576.56 148.453 579.835 150.437C583.209 152.421 586.782 153.413 590.554 153.413C594.424 153.413 598.046 152.47 601.421 150.586C604.795 148.601 607.474 145.824 609.459 142.253C611.444 138.583 612.436 134.218 612.436 129.158ZM730.446 127.373C730.446 130.349 730.247 133.027 729.85 135.408H669.561C670.056 141.36 672.14 146.023 675.813 149.395C679.485 152.768 684 154.454 689.36 154.454C697.1 154.454 702.608 151.131 705.883 144.485H728.362C725.98 152.421 721.414 158.968 714.666 164.126C707.918 169.186 699.631 171.715 689.806 171.715C681.866 171.715 674.721 169.979 668.37 166.507C662.117 162.936 657.205 157.927 653.632 151.478C650.159 145.03 648.421 137.59 648.421 129.158C648.421 120.627 650.159 113.138 653.632 106.69C657.105 100.241 661.969 95.2818 668.221 91.8096C674.473 88.3373 681.668 86.6016 689.806 86.6016C697.646 86.6016 704.643 88.2882 710.796 91.6608C717.048 95.0333 721.861 99.8448 725.236 106.094C728.709 112.245 730.446 119.338 730.446 127.373ZM708.861 121.421C708.761 116.064 706.826 111.799 703.055 108.624C699.284 105.35 694.669 103.714 689.211 103.714C684.05 103.714 679.683 105.301 676.111 108.475C672.637 111.55 670.503 115.865 669.71 121.421H708.861Z" fill="url(#paint0_linear_20_837)"/>
<path d="M503.702 327.815L480.777 287.341H470.952V327.815H450.111V223.952H489.114C497.152 223.952 504 225.391 509.657 228.268C515.314 231.046 519.531 234.865 522.31 239.725C525.188 244.487 526.627 249.844 526.627 255.796C526.627 262.64 524.642 268.841 520.673 274.396C516.703 279.852 510.798 283.621 502.958 285.704L527.818 327.815H503.702ZM470.952 271.717H488.369C494.026 271.717 498.243 270.378 501.023 267.7C503.801 264.922 505.191 261.103 505.191 256.242C505.191 251.48 503.801 247.81 501.023 245.231C498.243 242.552 494.026 241.213 488.369 241.213H470.952V271.717ZM616.187 223.952V240.767H588.499V327.815H567.658V240.767H539.969V223.952H616.187ZM626.332 275.735C626.332 265.518 628.614 256.391 633.179 248.356C637.844 240.222 644.146 233.922 652.085 229.458C660.124 224.895 669.105 222.613 679.029 222.613C690.641 222.613 700.813 225.589 709.546 231.541C718.28 237.493 724.384 245.727 727.857 256.242H703.89C701.508 251.283 698.134 247.563 693.767 245.082C689.5 242.602 684.537 241.362 678.881 241.362C672.827 241.362 667.418 242.801 662.654 245.677C657.99 248.455 654.318 252.423 651.638 257.581C649.059 262.74 647.768 268.791 647.768 275.735C647.768 282.58 649.059 288.631 651.638 293.888C654.318 299.047 657.99 303.065 662.654 305.941C667.418 308.719 672.827 310.108 678.881 310.108C684.537 310.108 689.5 308.868 693.767 306.388C698.134 303.809 701.508 300.039 703.89 295.079H727.857C724.384 305.694 718.28 313.976 709.546 319.928C700.912 325.782 690.74 328.708 679.029 328.708C669.105 328.708 660.124 326.476 652.085 322.012C644.146 317.449 637.844 311.149 633.179 303.114C628.614 295.079 626.332 285.953 626.332 275.735Z" fill="url(#paint1_linear_20_837)"/>
<path d="M859.568 39.4336C900.35 39.4336 933.412 72.4803 933.412 113.245C933.412 154.01 900.35 187.057 859.568 187.057C818.787 187.057 785.725 154.01 785.725 113.245C785.725 72.4803 818.787 39.4336 859.568 39.4336ZM859.568 83.7202C843.253 83.7202 830.026 96.9388 830.026 113.245C830.026 129.551 843.253 142.77 859.568 142.77C875.876 142.77 889.103 129.551 889.103 113.245C889.103 96.9388 875.876 83.7202 859.568 83.7202Z" fill="url(#paint2_linear_20_837)"/>
<path d="M914.209 201.816C954.99 201.816 988.053 234.863 988.053 275.628C988.053 316.393 954.99 349.44 914.209 349.44C873.428 349.44 840.365 316.393 840.365 275.628C840.365 234.863 873.428 201.816 914.209 201.816ZM914.209 231.341C889.743 231.341 869.907 251.169 869.907 275.628C869.907 300.087 889.743 319.915 914.209 319.915C938.682 319.915 958.518 300.087 958.518 275.628C958.518 251.169 938.682 231.341 914.209 231.341Z" fill="url(#paint3_linear_20_837)"/>
<path d="M918.645 251.272C918.645 248.419 916.33 246.105 913.476 246.105C910.621 246.105 908.307 248.419 908.307 251.272V276.368C908.307 279.222 910.621 281.535 913.476 281.535C916.33 281.535 918.645 279.222 918.645 276.368V251.272Z" fill="url(#paint4_linear_20_837)"/>
<path d="M928.244 271.203H913.476C910.621 271.203 908.307 273.516 908.307 276.37C908.307 279.224 910.621 281.537 913.476 281.537H928.244C931.099 281.537 933.413 279.224 933.413 276.37C933.413 273.516 931.099 271.203 928.244 271.203Z" fill="url(#paint5_linear_20_837)"/>
<path d="M914.209 278.581C915.84 278.581 917.162 277.259 917.162 275.628C917.162 273.998 915.84 272.676 914.209 272.676C912.577 272.676 911.255 273.998 911.255 275.628C911.255 277.259 912.577 278.581 914.209 278.581Z" fill="#93259E"/>
<path d="M858.206 206.984C838.303 223.227 825.597 247.945 825.597 275.63C825.597 300.905 836.189 323.708 853.182 339.846H773.346C761.013 339.846 751.017 329.853 751.017 317.526V273.944C751.017 236.964 781.005 206.984 818.005 206.984H858.206Z" fill="url(#paint6_linear_20_837)"/>
<defs>
<linearGradient id="paint0_linear_20_837" x1="85.5961" y1="107.019" x2="735.386" y2="107.019" gradientUnits="userSpaceOnUse">
<stop stop-color="#6A1B9A"/>
<stop offset="1" stop-color="#A43BFC"/>
</linearGradient>
<linearGradient id="paint1_linear_20_837" x1="85.5964" y1="264.458" x2="735.386" y2="264.458" gradientUnits="userSpaceOnUse">
<stop stop-color="#6E1DA1"/>
<stop offset="1" stop-color="#A5299F"/>
</linearGradient>
<linearGradient id="paint2_linear_20_837" x1="864.771" y1="39.4336" x2="958.092" y2="173.07" gradientUnits="userSpaceOnUse">
<stop stop-color="#6A1B9A"/>
<stop offset="0.639423" stop-color="#A13BFF"/>
<stop offset="0.927885" stop-color="#FF3EA6"/>
</linearGradient>
<linearGradient id="paint3_linear_20_837" x1="863.625" y1="329.142" x2="1020.49" y2="198.059" gradientUnits="userSpaceOnUse">
<stop stop-color="#FF3EA6"/>
<stop offset="1" stop-color="#6A1B9A"/>
</linearGradient>
<linearGradient id="paint4_linear_20_837" x1="913.472" y1="246.105" x2="913.472" y2="281.535" gradientUnits="userSpaceOnUse">
<stop stop-color="#FF3EA6"/>
<stop offset="0.850962" stop-color="#6A1B9A"/>
</linearGradient>
<linearGradient id="paint5_linear_20_837" x1="933.777" y1="275.631" x2="908.307" y2="276.37" gradientUnits="userSpaceOnUse">
<stop offset="0.058122" stop-color="#FF3EA6"/>
<stop offset="1" stop-color="#6A1B9A"/>
</linearGradient>
<linearGradient id="paint6_linear_20_837" x1="815.996" y1="196.651" x2="921.566" y2="263.12" gradientUnits="userSpaceOnUse">
<stop stop-color="#6A1B9A"/>
<stop offset="0.490385" stop-color="#A13BFF"/>
<stop offset="1" stop-color="#FF3EA6"/>
</linearGradient>
</defs>
</svg>
