<svg width="5000" height="5000" viewBox="0 0 5000 5000" fill="none" xmlns="http://www.w3.org/2000/svg">
<path d="M2400 300C2952.28 300 3400 747.715 3400 1300C3400 1852.28 2952.28 2300 2400 2300C1847.72 2300 1400 1852.28 1400 1300C1400 747.715 1847.72 300 2400 300ZM2400 900C2179.09 900 2000 1079.09 2000 1300C2000 1520.91 2179.09 1700 2400 1700C2620.91 1700 2800 1520.91 2800 1300C2800 1079.09 2620.91 900 2400 900Z" fill="url(#paint0_linear_12_478)"/>
<path d="M3140 2500C3692.28 2500 4140 2947.72 4140 3500C4140 4052.28 3692.28 4500 3140 4500C2587.72 4500 2140 4052.28 2140 3500C2140 2947.72 2587.72 2500 3140 2500ZM3140 2900C2808.63 2900 2540 3168.63 2540 3500C2540 3831.37 2808.63 4100 3140 4100C3471.37 4100 3740 3831.37 3740 3500C3740 3168.63 3471.37 2900 3140 2900Z" fill="url(#paint1_linear_12_478)"/>
<rect x="3060" y="3100" width="140" height="480" rx="70" fill="url(#paint2_linear_12_478)"/>
<rect x="3060" y="3440" width="340" height="140" rx="70" fill="url(#paint3_linear_12_478)"/>
<circle cx="3140" cy="3500" r="40" fill="#93259E"/>
<path d="M2381.59 2570C2112.08 2790.05 1940 3124.93 1940 3500C1940 3842.43 2083.43 4151.37 2313.5 4370H1230C1064.31 4370 930 4235.69 930 4070V3470C930 2972.94 1332.94 2570 1830 2570H2381.59Z" fill="url(#paint4_linear_12_478)"/>
<path d="M2400 300C2952.28 300 3400 747.715 3400 1300C3400 1852.28 2952.28 2300 2400 2300C1847.72 2300 1400 1852.28 1400 1300C1400 747.715 1847.72 300 2400 300ZM2400 900C2179.09 900 2000 1079.09 2000 1300C2000 1520.91 2179.09 1700 2400 1700C2620.91 1700 2800 1520.91 2800 1300C2800 1079.09 2620.91 900 2400 900Z" fill="url(#paint5_linear_12_478)"/>
<path d="M3140 2500C3692.28 2500 4140 2947.72 4140 3500C4140 4052.28 3692.28 4500 3140 4500C2587.72 4500 2140 4052.28 2140 3500C2140 2947.72 2587.72 2500 3140 2500ZM3140 2900C2808.63 2900 2540 3168.63 2540 3500C2540 3831.37 2808.63 4100 3140 4100C3471.37 4100 3740 3831.37 3740 3500C3740 3168.63 3471.37 2900 3140 2900Z" fill="url(#paint6_linear_12_478)"/>
<rect x="3060" y="3100" width="140" height="480" rx="70" fill="url(#paint7_linear_12_478)"/>
<rect x="3060" y="3440" width="340" height="140" rx="70" fill="url(#paint8_linear_12_478)"/>
<circle cx="3140" cy="3500" r="40" fill="#93259E"/>
<path d="M2381.59 2570C2112.08 2790.05 1940 3124.93 1940 3500C1940 3842.43 2083.43 4151.37 2313.5 4370H1230C1064.31 4370 930 4235.69 930 4070V3470C930 2972.94 1332.94 2570 1830 2570H2381.59Z" fill="url(#paint9_linear_12_478)"/>
<defs>
<linearGradient id="paint0_linear_12_478" x1="2470.46" y1="300" x2="3735" y2="2110" gradientUnits="userSpaceOnUse">
<stop stop-color="#6A1B9A"/>
<stop offset="0.639423" stop-color="#A13BFF"/>
<stop offset="0.927885" stop-color="#FF3EA6"/>
</linearGradient>
<linearGradient id="paint1_linear_12_478" x1="2455" y1="4225" x2="4580" y2="2450" gradientUnits="userSpaceOnUse">
<stop stop-color="#FF3EA6"/>
<stop offset="1" stop-color="#6A1B9A"/>
</linearGradient>
<linearGradient id="paint2_linear_12_478" x1="3130" y1="3100" x2="3130" y2="3580" gradientUnits="userSpaceOnUse">
<stop stop-color="#FF3EA6"/>
<stop offset="0.850962" stop-color="#6A1B9A"/>
</linearGradient>
<linearGradient id="paint3_linear_12_478" x1="3405" y1="3500" x2="3060" y2="3510" gradientUnits="userSpaceOnUse">
<stop offset="0.058122" stop-color="#FF3EA6"/>
<stop offset="1" stop-color="#6A1B9A"/>
</linearGradient>
<linearGradient id="paint4_linear_12_478" x1="1809.98" y1="2430" x2="3239.97" y2="3329.97" gradientUnits="userSpaceOnUse">
<stop stop-color="#6A1B9A"/>
<stop offset="0.490385" stop-color="#A13BFF"/>
<stop offset="1" stop-color="#FF3EA6"/>
</linearGradient>
<linearGradient id="paint5_linear_12_478" x1="2470.46" y1="300" x2="3735" y2="2110" gradientUnits="userSpaceOnUse">
<stop stop-color="#6A1B9A"/>
<stop offset="0.639423" stop-color="#A13BFF"/>
<stop offset="0.927885" stop-color="#FF3EA6"/>
</linearGradient>
<linearGradient id="paint6_linear_12_478" x1="2455" y1="4225" x2="4580" y2="2450" gradientUnits="userSpaceOnUse">
<stop stop-color="#FF3EA6"/>
<stop offset="1" stop-color="#6A1B9A"/>
</linearGradient>
<linearGradient id="paint7_linear_12_478" x1="3130" y1="3100" x2="3130" y2="3580" gradientUnits="userSpaceOnUse">
<stop stop-color="#FF3EA6"/>
<stop offset="0.850962" stop-color="#6A1B9A"/>
</linearGradient>
<linearGradient id="paint8_linear_12_478" x1="3405" y1="3500" x2="3060" y2="3510" gradientUnits="userSpaceOnUse">
<stop offset="0.058122" stop-color="#FF3EA6"/>
<stop offset="1" stop-color="#6A1B9A"/>
</linearGradient>
<linearGradient id="paint9_linear_12_478" x1="1809.98" y1="2430" x2="3239.97" y2="3329.97" gradientUnits="userSpaceOnUse">
<stop stop-color="#6A1B9A"/>
<stop offset="0.490385" stop-color="#A13BFF"/>
<stop offset="1" stop-color="#FF3EA6"/>
</linearGradient>
</defs>
</svg>
